<?xml version="1.0" encoding="utf-8"?>
<!-- Generator: Adobe Illustrator 22.1.0, SVG Export Plug-In . SVG Version: 6.00 Build 0)  -->
<svg version="1.1" id="Layer_1" focusable="false" xmlns="http://www.w3.org/2000/svg" xmlns:xlink="http://www.w3.org/1999/xlink"
	 x="0px" y="0px" viewBox="0 0 449 448" style="enable-background:new 0 0 449 448;" xml:space="preserve">
<style type="text/css">
	.st0{fill:#E6293D;}
</style>
<path class="st0" d="M225,0C101.3,0,1,100.3,1,224s100.3,224,224,224s224-100.3,224-224S348.7,0,225,0z M225,404.6
	c-99.8,0-180.6-80.8-180.6-180.6S125.2,43.4,225,43.4S405.6,124.2,405.6,224S324.8,404.6,225,404.6z M316.9,167.8L260.8,224
	l56.2,56.2c4.2,4.2,4.2,11.1,0,15.4l-20.4,20.4c-4.2,4.2-11.1,4.2-15.4,0L225,259.8l-56.2,56.2c-4.2,4.2-11.1,4.2-15.4,0l-20.4-20.4
	c-4.2-4.2-4.2-11.1,0-15.4l56.2-56.2l-56.2-56.2c-4.2-4.2-4.2-11.1,0-15.4l20.4-20.4c4.2-4.2,11.1-4.2,15.4,0l56.2,56.2l56.2-56.2
	c4.2-4.2,11.1-4.2,15.4,0l20.4,20.4C321.2,156.7,321.2,163.6,316.9,167.8L316.9,167.8z"/>
</svg>
