<?xml version="1.0" encoding="utf-8"?>
<!-- Generator: Adobe Illustrator 22.1.0, SVG Export Plug-In . SVG Version: 6.00 Build 0)  -->
<svg version="1.1" id="Layer_1" focusable="false" xmlns="http://www.w3.org/2000/svg" xmlns:xlink="http://www.w3.org/1999/xlink"
	 x="0px" y="0px" viewBox="0 0 448 448" style="enable-background:new 0 0 448 448;" xml:space="preserve">
<style type="text/css">
	.st0{fill:#1FB407;}
</style>
<path class="st0" d="M224,0C100.3,0,0,100.3,0,224s100.3,224,224,224s224-100.3,224-224S347.7,0,224,0z M224,43.4
	c99.8,0,180.6,80.8,180.6,180.6c0,99.8-80.8,180.6-180.6,180.6c-99.8,0-180.6-80.8-180.6-180.6C43.4,124.2,124.1,43.4,224,43.4
	 M350.6,161l-20.4-20.5c-4.2-4.2-11.1-4.3-15.3-0.1L187.3,267.1l-54-54.4c-4.2-4.2-11.1-4.3-15.3-0.1l-20.5,20.4
	c-4.2,4.2-4.3,11.1-0.1,15.3l82,82.7c4.2,4.2,11.1,4.3,15.3,0.1l155.9-154.6C354.8,172.1,354.9,165.3,350.6,161L350.6,161z"/>
</svg>
